<mxfile host="app.diagrams.net" modified="2024-05-10T20:48:47.381Z" agent="Mozilla/5.0 (Windows NT 10.0; Win64; x64) AppleWebKit/537.36 (KHTML, like Gecko) Chrome/124.0.0.0 Safari/537.36" version="24.3.1" etag="P_hgzvbR1jGsE28TW5c0" type="device">
  <diagram name="Страница — 1" id="9Qov57yrKp08msyJnxpZ">
    <mxGraphModel dx="1290" dy="1726" grid="1" gridSize="10" guides="1" tooltips="1" connect="1" arrows="1" fold="1" page="1" pageScale="1" pageWidth="827" pageHeight="1169" math="0" shadow="0">
      <root>
        <mxCell id="0" />
        <mxCell id="1" parent="0" />
        <mxCell id="pOleCrQijlKQoVfFNrDn-5" value="&lt;font style=&quot;font-size: 10px;&quot; color=&quot;#ffffff&quot;&gt;База данных&lt;/font&gt;&lt;div style=&quot;font-size: 8px;&quot;&gt;&lt;font style=&quot;font-size: 8px;&quot; color=&quot;#ffffff&quot;&gt;[Container: PostgreSQL]&lt;/font&gt;&lt;/div&gt;&lt;div style=&quot;font-size: 8px;&quot;&gt;&lt;font style=&quot;font-size: 8px;&quot; color=&quot;#ffffff&quot;&gt;&lt;span style=&quot;font-size: 10px;&quot;&gt;&lt;br&gt;&lt;/span&gt;&lt;/font&gt;&lt;/div&gt;&lt;div&gt;&lt;font style=&quot;font-size: 8px;&quot; color=&quot;#ffffff&quot;&gt;Хранит информацию о пользователях, и о предстоящих событиях&lt;/font&gt;&lt;/div&gt;" style="shape=cylinder3;whiteSpace=wrap;html=1;boundedLbl=1;backgroundOutline=1;size=4.885707310267833;fillColor=#348CFE;strokeColor=#999999;" parent="1" vertex="1">
          <mxGeometry x="455" y="340" width="170" height="80" as="geometry" />
        </mxCell>
        <mxCell id="pOleCrQijlKQoVfFNrDn-8" value="" style="group" parent="1" vertex="1" connectable="0">
          <mxGeometry x="229" y="-10" width="156.15" height="90" as="geometry" />
        </mxCell>
        <mxCell id="pOleCrQijlKQoVfFNrDn-1" value="&lt;font style=&quot;font-size: 10px;&quot;&gt;Посетитель сайта&amp;nbsp;&lt;/font&gt;&lt;div&gt;&lt;div&gt;&lt;font style=&quot;font-size: 10px;&quot;&gt;&lt;br&gt;&lt;/font&gt;&lt;/div&gt;&lt;div&gt;&lt;br&gt;&lt;/div&gt;&lt;/div&gt;" style="rounded=1;whiteSpace=wrap;html=1;strokeColor=none;fillColor=#003366;fontColor=#FFFFFF;arcSize=24;" parent="pOleCrQijlKQoVfFNrDn-8" vertex="1">
          <mxGeometry y="31.7325" width="156.15" height="58.2675" as="geometry" />
        </mxCell>
        <mxCell id="pOleCrQijlKQoVfFNrDn-23" style="edgeStyle=orthogonalEdgeStyle;rounded=0;orthogonalLoop=1;jettySize=auto;html=1;" parent="1" source="pOleCrQijlKQoVfFNrDn-9" edge="1">
          <mxGeometry relative="1" as="geometry">
            <mxPoint x="539" y="150" as="targetPoint" />
          </mxGeometry>
        </mxCell>
        <mxCell id="pOleCrQijlKQoVfFNrDn-9" value="&lt;font style=&quot;font-size: 10px;&quot;&gt;Web-приложение&lt;/font&gt;&lt;div&gt;&lt;font style=&quot;font-size: 8px;&quot;&gt;[Container: React JS]&lt;/font&gt;&lt;br&gt;&lt;div style=&quot;font-size: 10px;&quot;&gt;&lt;br&gt;&lt;/div&gt;&lt;div&gt;&lt;span style=&quot;font-size: 7px;&quot;&gt;Клиентская часть сайта для обычных пользовтелей&lt;/span&gt;&lt;/div&gt;&lt;/div&gt;" style="rounded=0;whiteSpace=wrap;html=1;strokeColor=none;fillColor=#348cfe;fontColor=#FFFFFF;" parent="1" vertex="1">
          <mxGeometry x="464" y="10.000000000000007" width="150" height="80" as="geometry" />
        </mxCell>
        <mxCell id="pOleCrQijlKQoVfFNrDn-24" style="edgeStyle=orthogonalEdgeStyle;rounded=0;orthogonalLoop=1;jettySize=auto;html=1;" parent="1" edge="1">
          <mxGeometry relative="1" as="geometry">
            <mxPoint x="539" y="240" as="sourcePoint" />
            <mxPoint x="539" y="340" as="targetPoint" />
          </mxGeometry>
        </mxCell>
        <mxCell id="pOleCrQijlKQoVfFNrDn-10" value="&lt;font style=&quot;font-size: 10px;&quot;&gt;Сервер&lt;/font&gt;&lt;div&gt;&lt;font style=&quot;font-size: 8px;&quot;&gt;[Container: Java &amp;amp; Spring]&lt;/font&gt;&lt;br&gt;&lt;div style=&quot;font-size: 10px;&quot;&gt;&lt;br&gt;&lt;/div&gt;&lt;div&gt;&lt;span style=&quot;font-size: 7px;&quot;&gt;Серверная часть для взаимодействия с клиентской частью и ORM для работы с БД&lt;/span&gt;&lt;/div&gt;&lt;/div&gt;" style="rounded=0;whiteSpace=wrap;html=1;strokeColor=none;fillColor=#348cfe;fontColor=#FFFFFF;" parent="1" vertex="1">
          <mxGeometry x="440" y="150" width="200" height="90" as="geometry" />
        </mxCell>
        <mxCell id="To693u8x6fsa3TlEn9rN-4" style="edgeStyle=orthogonalEdgeStyle;rounded=0;orthogonalLoop=1;jettySize=auto;html=1;exitX=1;exitY=0.25;exitDx=0;exitDy=0;" edge="1" parent="1" source="pOleCrQijlKQoVfFNrDn-11" target="pOleCrQijlKQoVfFNrDn-10">
          <mxGeometry relative="1" as="geometry" />
        </mxCell>
        <mxCell id="pOleCrQijlKQoVfFNrDn-11" value="&lt;span style=&quot;font-size: 10px;&quot;&gt;Web-сайт для партнеров&lt;/span&gt;&lt;br&gt;&lt;div&gt;&lt;font style=&quot;font-size: 8px;&quot;&gt;[Container: React JS]&lt;/font&gt;&lt;br&gt;&lt;div style=&quot;font-size: 10px;&quot;&gt;&lt;br&gt;&lt;/div&gt;&lt;div&gt;&lt;span style=&quot;font-size: 7px;&quot;&gt;Отдельный сайт для рекламодателей&amp;nbsp;&lt;/span&gt;&lt;/div&gt;&lt;/div&gt;" style="rounded=0;whiteSpace=wrap;html=1;strokeColor=none;fillColor=#348cfe;fontColor=#FFFFFF;" parent="1" vertex="1">
          <mxGeometry x="235.14999999999998" y="190" width="150" height="80" as="geometry" />
        </mxCell>
        <mxCell id="pOleCrQijlKQoVfFNrDn-12" value="" style="group" parent="1" vertex="1" connectable="0">
          <mxGeometry y="150" width="170" height="120" as="geometry" />
        </mxCell>
        <mxCell id="pOleCrQijlKQoVfFNrDn-13" value="&lt;font style=&quot;font-size: 10px;&quot;&gt;Рекламодатель или спонсор&amp;nbsp;&lt;/font&gt;" style="rounded=1;whiteSpace=wrap;html=1;strokeColor=none;fillColor=#003366;fontColor=#FFFFFF;arcSize=24;" parent="pOleCrQijlKQoVfFNrDn-12" vertex="1">
          <mxGeometry y="42.31" width="170" height="77.69" as="geometry" />
        </mxCell>
        <mxCell id="pOleCrQijlKQoVfFNrDn-19" style="edgeStyle=orthogonalEdgeStyle;rounded=0;orthogonalLoop=1;jettySize=auto;html=1;" parent="1" source="pOleCrQijlKQoVfFNrDn-1" target="pOleCrQijlKQoVfFNrDn-9" edge="1">
          <mxGeometry relative="1" as="geometry" />
        </mxCell>
        <mxCell id="To693u8x6fsa3TlEn9rN-3" style="edgeStyle=orthogonalEdgeStyle;rounded=0;orthogonalLoop=1;jettySize=auto;html=1;exitX=1;exitY=0.5;exitDx=0;exitDy=0;entryX=0;entryY=0.5;entryDx=0;entryDy=0;" edge="1" parent="1" source="pOleCrQijlKQoVfFNrDn-13" target="pOleCrQijlKQoVfFNrDn-11">
          <mxGeometry relative="1" as="geometry" />
        </mxCell>
      </root>
    </mxGraphModel>
  </diagram>
</mxfile>
